<?xml version="1.0" encoding="UTF-8"?>
<!DOCTYPE svg PUBLIC "-//W3C//DTD SVG 1.1//EN" "http://www.w3.org/Graphics/SVG/1.1/DTD/svg11.dtd">
<svg xmlns="http://www.w3.org/2000/svg" version="1.1" width="512px" height="512px" style="shape-rendering:geometricPrecision; text-rendering:geometricPrecision; image-rendering:optimizeQuality; fill-rule:evenodd; clip-rule:evenodd" xmlns:xlink="http://www.w3.org/1999/xlink">
<g><path style="opacity:0.985" fill="#000000" d="M 127.5,12.5 C 148.892,12.2118 169.226,16.7118 188.5,26C 227.056,45.2239 258.056,72.8905 281.5,109C 246.833,134.491 219.166,165.991 198.5,203.5C 179.175,190.169 159.508,177.336 139.5,165C 123.745,153.913 109.912,140.746 98,125.5C 88.0928,112.349 81.4262,97.6825 78,81.5C 74.5744,59.1137 80.741,39.947 96.5,24C 105.989,17.6729 116.322,13.8396 127.5,12.5 Z"/></g>
<g><path style="opacity:0.985" fill="#000000" d="M -0.5,199.5 C -0.5,185.833 -0.5,172.167 -0.5,158.5C 2.47411,123.909 14.1408,92.5756 34.5,64.5C 34.7511,90.4147 41.5844,114.415 55,136.5C 75.2093,166.519 100.709,191.019 131.5,210C 149.297,219.31 165.797,230.477 181,243.5C 177.375,257.337 174.042,271.337 171,285.5C 162.742,329.602 165.575,372.935 179.5,415.5C 159.369,413.957 140.369,408.457 122.5,399C 74.0832,370.907 39.5832,330.741 19,278.5C 8.8555,252.924 2.3555,226.59 -0.5,199.5 Z"/></g>
<g><path style="opacity:0.987" fill="#000000" d="M 347.5,101.5 C 348.675,101.281 349.675,101.614 350.5,102.5C 327.512,129.622 316.512,161.122 317.5,197C 317.819,215.385 319.986,233.552 324,251.5C 328.322,269.467 333.655,287.133 340,304.5C 349.255,334.624 350.255,364.957 343,395.5C 335.214,417.284 321.047,433.451 300.5,444C 273.776,457.932 247.109,457.932 220.5,444C 211.403,438.904 205.237,431.404 202,421.5C 173.535,332.841 186.535,250.841 241,175.5C 268.384,139.065 303.884,114.399 347.5,101.5 Z"/></g>
<g><path style="opacity:0.986" fill="#000000" d="M 511.5,241.5 C 511.5,255.167 511.5,268.833 511.5,282.5C 504.676,350.981 476.342,408.814 426.5,456C 399.973,479.76 368.973,494.094 333.5,499C 312.243,501.303 291.909,498.137 272.5,489.5C 340.017,483.148 378.85,446.482 389,379.5C 391.484,352.428 389.15,325.761 382,299.5C 372.548,273.813 365.548,247.479 361,220.5C 356.892,194.133 360.225,168.799 371,144.5C 384.283,120.941 404.449,110.107 431.5,112C 452.247,118.08 468.413,130.246 480,148.5C 497.411,177.235 507.911,208.235 511.5,241.5 Z"/></g>
</svg>
