<?xml version="1.0" encoding="UTF-8"?>
<!DOCTYPE svg PUBLIC "-//W3C//DTD SVG 1.1//EN" "http://www.w3.org/Graphics/SVG/1.1/DTD/svg11.dtd">
<svg xmlns="http://www.w3.org/2000/svg" version="1.1" width="512px" height="512px" style="shape-rendering:geometricPrecision; text-rendering:geometricPrecision; image-rendering:optimizeQuality; fill-rule:evenodd; clip-rule:evenodd" xmlns:xlink="http://www.w3.org/1999/xlink">
<g><path style="opacity:0.972" fill="#000000" d="M 254.5,15.5 C 283.824,13.1483 300.491,26.4816 304.5,55.5C 300.512,84.6654 283.846,97.8321 254.5,95C 239.939,91.4396 230.106,82.6063 225,68.5C 219.424,41.977 229.257,24.3104 254.5,15.5 Z"/></g>
<g><path style="opacity:0.981" fill="#000000" d="M 234.5,102.5 C 256.557,103.057 267.723,114.39 268,136.5C 278.884,148.383 291.718,157.549 306.5,164C 315.681,167.727 325.015,171.061 334.5,174C 354.833,174.333 375.167,174.667 395.5,175C 406.452,177.618 412.952,184.452 415,195.5C 421.302,227.326 408.468,241.992 376.5,239.5C 377.583,262.588 385.083,283.255 399,301.5C 403.546,305.714 408.379,309.547 413.5,313C 426.965,326.228 431.631,342.062 427.5,360.5C 463.009,362.532 485.509,380.532 495,414.5C 495.667,418.833 495.667,423.167 495,427.5C 493.622,429.213 491.955,430.547 490,431.5C 494.354,459.765 483.854,480.265 458.5,493C 422.834,502.253 399.334,489.42 388,454.5C 384.403,460.384 379.57,461.718 373.5,458.5C 370.377,453.918 368.043,448.918 366.5,443.5C 365.5,444 364.5,444.5 363.5,445C 316.835,445.5 270.168,445.667 223.5,445.5C 220.995,468.172 208.995,483.339 187.5,491C 158.461,497.727 137.294,487.893 124,461.5C 121.882,456.362 120.715,451.029 120.5,445.5C 101.78,445.221 90.6135,435.888 87,417.5C 86.0361,399.684 89.3695,382.684 97,366.5C 101.911,356.343 107.078,346.343 112.5,336.5C 153.828,335.5 195.161,335.167 236.5,335.5C 231.531,352.287 235.031,366.954 247,379.5C 249.674,347.048 251.84,314.548 253.5,282C 255.337,274.645 252.67,270.312 245.5,269C 230.393,267.655 215.393,265.655 200.5,263C 190.874,258.581 186.207,251.081 186.5,240.5C 193.731,199.574 202.231,158.907 212,118.5C 217.19,109.795 224.69,104.462 234.5,102.5 Z M 256.5,186.5 C 277.076,202.445 300.409,211.779 326.5,214.5C 326.5,272.833 326.5,331.167 326.5,389.5C 316.5,389.5 306.5,389.5 296.5,389.5C 301.626,343.87 306.126,298.204 310,252.5C 308.262,245.52 304.429,240.02 298.5,236C 282.904,230.025 267.404,223.858 252,217.5C 251.077,215.966 250.577,214.299 250.5,212.5C 252.189,203.745 254.189,195.078 256.5,186.5 Z M 444.5,424.5 C 452.612,424.114 460.612,424.781 468.5,426.5C 478.333,446.497 474,462.663 455.5,475C 437.39,482.841 422.223,479.008 410,463.5C 404.678,455.434 403.511,446.934 406.5,438C 418.313,430.787 430.979,426.287 444.5,424.5 Z M 137.5,445.5 C 160.5,445.5 183.5,445.5 206.5,445.5C 200.165,470.336 184.499,479.836 159.5,474C 146.685,468.69 139.351,459.19 137.5,445.5 Z"/></g>
<g><path style="opacity:0.992" fill="#000000" d="M 24.5,127.5 C 66.5013,127.333 108.501,127.5 150.5,128C 161.673,131.842 167.506,139.675 168,151.5C 168.667,180.833 168.667,210.167 168,239.5C 167.506,251.325 161.673,259.158 150.5,263C 108.5,263.667 66.5,263.667 24.5,263C 16.3333,260.167 10.8333,254.667 8,246.5C 7.33333,212.5 7.33333,178.5 8,144.5C 11.0191,136.316 16.5191,130.649 24.5,127.5 Z"/></g>
<g><path style="opacity:0.974" fill="#000000" d="M 101.5,277.5 C 145.501,277.333 189.501,277.5 233.5,278C 235.939,278.774 237.773,280.274 239,282.5C 239.5,294.829 239.667,307.162 239.5,319.5C 195.499,319.667 151.499,319.5 107.5,319C 98.0402,308.62 94.2068,296.453 96,282.5C 97.1065,279.887 98.9399,278.22 101.5,277.5 Z"/></g>
</svg>
