<?xml version="1.0" encoding="UTF-8"?>
<!DOCTYPE svg PUBLIC "-//W3C//DTD SVG 1.1//EN" "http://www.w3.org/Graphics/SVG/1.1/DTD/svg11.dtd">
<svg xmlns="http://www.w3.org/2000/svg" version="1.1" width="512px" height="512px" style="shape-rendering:geometricPrecision; text-rendering:geometricPrecision; image-rendering:optimizeQuality; fill-rule:evenodd; clip-rule:evenodd" xmlns:xlink="http://www.w3.org/1999/xlink">
<g><path style="opacity:1" fill="#000000" d="M 149.5,-0.5 C 220.167,-0.5 290.833,-0.5 361.5,-0.5C 361.5,9.5 361.5,19.5 361.5,29.5C 290.833,29.5 220.167,29.5 149.5,29.5C 149.5,19.5 149.5,9.5 149.5,-0.5 Z"/></g>
<g><path style="opacity:0.992" fill="#000000" d="M 140.5,59.5 C 208.503,59.1667 276.503,59.5 344.5,60.5C 328.048,79.9075 311.714,99.4075 295.5,119C 227.498,119.833 159.498,119.667 91.5,118.5C 108.08,98.987 124.413,79.3204 140.5,59.5 Z"/></g>
<g><path style="opacity:0.961" fill="#000000" d="M 375.5,67.5 C 377.017,67.5106 378.184,68.1772 379,69.5C 392.5,85.8333 406,102.167 419.5,118.5C 390.833,119.833 362.167,119.833 333.5,118.5C 347.523,101.481 361.523,84.4808 375.5,67.5 Z"/></g>
<g><path style="opacity:0.994" fill="#000000" d="M 74.5,149.5 C 145.167,149.5 215.833,149.5 286.5,149.5C 286.5,169.833 286.5,190.167 286.5,210.5C 254.63,212.29 225.296,221.79 198.5,239C 185.989,247.755 173.656,256.755 161.5,266C 135.96,285.906 106.96,297.073 74.5,299.5C 74.5,249.5 74.5,199.5 74.5,149.5 Z"/></g>
<g><path style="opacity:1" fill="#000000" d="M 436.5,511.5 C 396.5,511.5 356.5,511.5 316.5,511.5C 316.5,390.833 316.5,270.167 316.5,149.5C 356.5,149.5 396.5,149.5 436.5,149.5C 436.5,270.167 436.5,390.833 436.5,511.5 Z"/></g>
<g><path style="opacity:0.997" fill="#000000" d="M 286.5,511.5 C 215.833,511.5 145.167,511.5 74.5,511.5C 74.5,450.5 74.5,389.5 74.5,328.5C 106.369,326.71 135.702,317.21 162.5,300C 177.01,289.912 191.343,279.578 205.5,269C 229.648,251.56 256.648,241.726 286.5,239.5C 286.5,330.167 286.5,420.833 286.5,511.5 Z"/></g>
</svg>
